<svg xmlns="http://www.w3.org/2000/svg" width="273.972" height="105.418" viewBox="93.014 2.291 233.972 65.418" style="background:0 0" preserveAspectRatio="xMidYMid"><defs><filter id="editing-extrude-glow"><feFlood flood-color="#333" result="flood-1"/><feMorphology radius="1" in="SourceAlpha" result="erode"/><feComposite operator="in" in="flood-1" in2="erode" result="comp1"/><feConvolveMatrix order="3,3" divisor="1" in="comp1" result="convolve" kernelMatrix="0 0 0 1 1 1 0 0 0"/><feOffset dx="-3" in="convolve" result="extrude"/><feComposite operator="in" in="flood-1" in2="extrude" result="comp-extrude"/><feFlood flood-color="#000" result="flood-2"/><feComposite operator="in" in="flood-2" in2="SourceAlpha" result="comp2"/><feMorphology operator="dilate" radius="1" in="comp2" result="dilate"/><feOffset dx="-4.5" in="dilate" result="offset"/><feGaussianBlur in="offset" stdDeviation="5.8" result="blur"/><feComponentTransfer in="blur" result="shadow"><feFuncA type="linear" slope=".8" intercept="-.2"/></feComponentTransfer><feMerge><feMergeNode in="shadow"/><feMergeNode in="comp-extrude"/><feMergeNode in="SourceGraphic"/></feMerge></filter></defs><path d="M3.88-16.22v-22.91q0-6.25 1.03-9.18 1.03-2.94 2.25-4.32 2.65-3 7.75-3.03 7.12.03 9.18 6.28 1.19 3.6 1.19 9.57v6.09h-6.34v-6.12q0-5.29-.58-7.14-.58-1.86-1.39-2.47-.81-.61-2.06-.61-2.6 0-3.58 2.45-.99 2.45-.99 7.73v23.82q0 6.25.89 8.73.9 2.49 3.44 2.49 2.55 0 3.41-2.5.86-2.5.86-8.75v-6.1h6.4v6.03q0 8.66-2.36 12.74Q20.63.66 14.75.66q-5.87 0-8.37-4.21-2.5-4.2-2.5-12.67zm43.81-31.22q.12 0 .12 4.06L47.78-42q-5.62 0-8.06 3.91V0h-6.44v-46.88h6.44v5.22q.81-2.75 2.86-4.26 2.05-1.52 5.11-1.52zM67.09-8v-17.84q-3.93 1.78-5.25 2.75-1.31.96-1.98 2.26-.67 1.3-.67 4.27v4.34q0 4.09.72 5.77.72 1.67 2.47 1.67 1.75 0 3-1.02 1.25-1.01 1.71-2.2zM53.31-31.97v-1.34q0-8.5 2.66-11.32 2.66-2.81 7.56-2.81 4.91 0 7.11 2.38 2.2 2.37 2.7 7.62.22 2.25.22 5.53V0h-6.43v-4.06q-.5 1.68-2.19 3.08Q63.25.41 60.75.41q-7.97 0-8.03-12.44v-4.56q0-4.04 2.2-6.89 2.21-2.86 12.17-6.52v-3.63q0-6.03-.87-7.25-.88-1.21-2.99-1.21-2.1 0-2.82 1.84-.72 1.84-.72 6.66v1.62h-6.38zm27.57-9.37v-5.54h16.15v4.41l-10.34 37h9.81V0H80.09v-4.78l10.32-36.56h-9.53zm32.46 18.84l3.07-24.38h6.18L114.81.91q-.56 3.9-1.43 5.09-.88 1.19-1.94 1.52-1.06.32-2.78.32h-6.28V3h2.21q3.29 0 3.63-.75.28-.34.28-1.34t-.25-2.57l-7.66-45.22h6.22l3.38 24.38 1.37 12.69h.57l1.21-12.69zm29.94 6.28v-22.91q0-6.25 1.03-9.18 1.03-2.94 2.25-4.32 2.66-3 7.75-3.03 7.13.03 9.19 6.28 1.19 3.6 1.19 9.57v6.09h-6.35v-6.12q0-5.29-.57-7.14-.58-1.86-1.39-2.47-.82-.61-2.07-.61-2.59 0-3.58 2.45-.98 2.45-.98 7.73v23.82q0 6.25.89 8.73.89 2.49 3.44 2.49t3.4-2.5q.86-2.5.86-8.75v-6.1h6.41v6.03q0 8.66-2.36 12.74T154.16.66q-5.88 0-8.38-4.21-2.5-4.2-2.5-12.67zM186.41-8v-17.84q-3.94 1.78-5.25 2.75-1.32.96-1.99 2.26-.67 1.3-.67 4.27v4.34q0 4.09.72 5.77.72 1.67 2.47 1.67 1.75 0 3-1.02 1.25-1.01 1.72-2.2zm-13.78-23.97v-1.34q0-8.5 2.65-11.32 2.66-2.81 7.56-2.81 4.91 0 7.11 2.38 2.21 2.37 2.71 7.62.22 2.25.22 5.53V0h-6.44v-4.06q-.5 1.68-2.19 3.08-1.69 1.39-4.19 1.39-7.97 0-8.03-12.44v-4.56q0-4.04 2.2-6.89 2.21-2.86 12.18-6.52v-3.63q0-6.03-.88-7.25-.87-1.21-2.98-1.21t-2.83 1.84q-.72 1.84-.72 6.66v1.62h-6.37zm30.12-14.53V-55h6.41v8.5h5.06v4.75h-5.06v34.22q0 1.81.84 2.26.84.46 4.28.46V.28h-4.4q-4.44 0-5.79-1.61-1.34-1.61-1.34-5.64v-34.78h-4.28v-4.75h4.28z" fill="#eb6c6c" transform="translate(100.92 65.563)" filter="url(#editing-extrude-glow)"/><style></style></svg>