<?xml version="1.0" encoding="UTF-8"?>
<!-- Created with Inkscape (http://www.inkscape.org/) -->
<svg width="82.577mm" height="14.725mm" version="1.1" viewBox="0 0 82.577 14.725" xmlns="http://www.w3.org/2000/svg" xmlns:cc="http://creativecommons.org/ns#" xmlns:dc="http://purl.org/dc/elements/1.1/" xmlns:rdf="http://www.w3.org/1999/02/22-rdf-syntax-ns#">
 <metadata>
  <rdf:RDF>
   <cc:Work rdf:about="">
    <dc:format>image/svg+xml</dc:format>
    <dc:type rdf:resource="http://purl.org/dc/dcmitype/StillImage"/>
    <dc:title/>
   </cc:Work>
  </rdf:RDF>
 </metadata>
 <g transform="translate(-112.18 -158.06)">
  <g fill="none" stroke="#fff" stroke-width=".26458px">
   <path d="m114.41 165.09 0.87407-5.6933s-0.0473-0.30711 0.35435-0.77957c0.4016-0.47247 1.0394-0.0236 1.0394-0.0236l2.7876 2.4096s2.1025-0.8032 5.2917 0.0945l2.8348-2.575s0.77957-0.75595 1.0394 0.0236c0.25986 0.77957 1.2284 6.4965 1.2284 6.4965s1.1812 1.7245 0.49609 3.9924"/>
   <path d="m130.35 169.03s-2.2206 3.7562-8.1737 3.6144c-5.9531-0.14174-8.3391-3.6616-8.3391-3.6616s-0.92131-2.1261 0.56697-3.8979"/>
   <path d="m114.13 169.41-1.9135 0.51972"/>
   <path d="m114.93 170.19-1.9608 1.0394"/>
   <path d="m115.8 170.85-1.4883 1.1812"/>
   <path d="m128.51 170.94 1.63 1.1812"/>
   <path d="m129.34 170.28 1.8899 0.92132"/>
   <path d="m130.12 169.46 1.6064 0.37797"/>
  </g>
  <circle cx="118.13" cy="167.51" r=".50791" stroke-width=".26458" fill="#fff"/>
  <circle cx="126.06" cy="167.52" r=".50791" stroke-width=".26458" fill="#fff"/>
  <path transform="scale(-1)" d="m-122.05-168.98c-0.24856 0.0121-0.64265 0.22915-0.77743 0.0199-0.13479-0.2092 0.22572-0.47835 0.3395-0.69967 0.11379-0.22133 0.12288-0.67113 0.37145-0.68326 0.24856-0.0121 0.30139 0.43466 0.43618 0.64386 0.13478 0.2092 0.51977 0.44198 0.40599 0.66331-0.11378 0.22132-0.52712 0.0437-0.77569 0.0558z" stroke-width=".24495" fill="#fff"/>
  <path d="m122.11 170.17s-0.51972 0.66146-1.1339 0.63784" fill="none" stroke="#fff" stroke-width=".26458px"/>
  <path d="m122.11 170.17s0.51972 0.66146 1.1339 0.63784" fill="none" stroke="#fff" stroke-width=".26458px"/>
  <text x="132.93419" y="169.33852" fill="#fff" font-family="sans-serif" font-size="10.583px" letter-spacing="0px" stroke-width=".26458" word-spacing="0px" style="line-height:1.25" xml:space="preserve"><tspan x="132.93419" y="169.33852" font-family="sans-serif" font-size="11.289px" font-weight="bold" letter-spacing=".079375px" stroke-width=".26458" style="line-height:6.05000019">Crazy-Cat</tspan></text>
 </g>
</svg>
